<?xml version="1.0" encoding="UTF-8" standalone="no"?>
<!-- Created with Inkscape (http://www.inkscape.org/) -->

<svg
   width="159.03139mm"
   height="155.24818mm"
   viewBox="0 0 159.03139 155.24818"
   version="1.1"
   id="svg1"
   xml:space="preserve"
   xmlns="http://www.w3.org/2000/svg"
   xmlns:svg="http://www.w3.org/2000/svg"><defs
     id="defs1" /><g
     id="layer1"
     transform="translate(-20.230749,-72.472595)"><path
       id="path404"
       style="fill:#ffffff;fill-opacity:1;stroke-width:0.645796"
       d="m 110.47594,74.739624 c -7.3e-4,3.3e-5 -0.002,3.73e-4 -0.003,5.17e-4 -10e-4,4.02e-4 -0.004,0.0017 -0.005,0.0026 -0.0579,0.05276 0.14066,0.798657 1.17874,4.663798 2.0377,7.58697 2.09642,10.43396 0.43873,21.253491 -1.01018,6.59337 -0.89579,7.96699 1.15239,13.83998 2.68066,7.68656 2.54709,10.28258 -0.77773,15.11639 -1.56799,2.27965 -1.91622,2.98442 -2.46962,4.99918 l -0.20515,0.74724 -0.49506,-1.43247 c -1.06641,-3.08392 -2.85338,-5.84473 -6.32417,-9.77098 -2.40308,-2.71842 -3.883697,-4.69141 -4.811588,-6.41305 -1.040422,-1.93042 -1.196616,-2.49125 -1.292944,-4.63331 -0.154711,-3.44028 0.518627,-5.8114 3.619932,-12.74341 3.15981,-7.062803 3.97633,-9.539494 3.95377,-11.996684 -0.0204,-2.22438 -0.96257,-3.927693 -3.5817,-6.475573 -2.211219,-2.15107 -3.145181,-3.784313 -3.173964,-5.551083 -0.02034,-1.24881 -0.312943,-0.281048 -0.322978,1.068152 -0.01176,1.57843 0.529962,2.958977 2.083594,5.309237 1.915638,2.89787 2.168568,3.507295 2.093928,5.037935 -0.0558,1.14312 -0.15361,1.446421 -0.94103,2.916101 -1.000805,1.86863 -3.987358,6.450155 -4.260202,6.536035 -0.09956,0.0313 -0.397061,-0.291755 -0.661458,-0.717785 -0.264397,-0.42604 -1.769336,-2.027319 -3.343982,-3.558439 -2.533027,-2.46302 -2.945249,-2.943419 -3.581177,-4.171839 -1.069617,-2.06618 -1.348451,-4.520586 -0.82734,-7.283276 0.129191,-0.68492 0.215398,-1.266824 0.19172,-1.292944 -0.07893,-0.087 -0.790114,1.693206 -1.140499,2.854606 -1.178187,3.90533 -0.709558,6.812336 1.666048,10.333736 0.545747,0.80897 1.419666,2.095954 1.942001,2.859774 1.154594,1.68837 1.671852,2.926448 1.794205,4.294317 0.133776,1.49559 -0.202358,2.82293 -1.355989,5.35833 -1.151039,2.52969 -1.658645,3.9252 -1.982308,5.44618 l -0.223242,1.04644 -2.452047,-1.58026 c -4.570064,-2.94474 -6.198136,-4.48243 -7.573698,-7.15357 -1.719015,-3.33808 -2.066168,-5.787814 -1.683618,-11.872664 0.378748,-6.02438 -0.33458,-9.594828 -2.337325,-11.705228 l -0.629936,-0.664559 0.433565,0.756026 c 0.681804,1.18877 0.970818,2.117108 1.135331,3.641638 0.204287,1.89311 -0.01682,3.80001 -0.953946,8.22172 -1.262254,5.95549 -1.398292,7.746374 -0.797885,10.528557 0.68187,3.15966 1.642162,5.3666 3.400826,7.81916 0.584172,0.81465 2.562323,2.82393 5.721098,5.81102 2.655719,2.51137 5.4737,5.24861 6.261634,6.08232 3.046696,3.22373 5.907557,7.14948 7.607287,10.43915 0.615579,1.1914 1.370174,2.3169 2.170927,3.23753 2.18832,2.5159 3.4268,4.84563 3.95738,7.44502 0.26448,1.29573 0.30947,4.70032 0.0806,6.08749 -0.0511,0.30973 -0.0845,0.48756 -0.10646,0.50178 h -5.1e-4 v 5.1e-4 h -5.2e-4 -5.2e-4 -5.1e-4 -5.2e-4 v -5.1e-4 c -0.0292,-0.01 -0.0382,-0.34862 -0.0506,-1.10278 -0.11913,-7.25737 -4.810885,-13.71848 -12.409582,-17.08991 -3.491455,-1.54911 -7.150879,-2.43924 -13.610539,-3.30988 -8.619634,-1.16176 -12.141497,-2.16672 -15.194421,-4.33565 -1.961068,-1.39322 -3.797144,-3.90002 -4.732011,-6.46059 -0.791969,-2.16919 -0.907805,-3.41044 -0.922424,-9.8795 -0.0123,-5.44193 -0.05167,-6.27595 -0.342098,-7.3055 -0.516794,-1.832033 -1.406729,-3.278416 -2.714563,-4.410066 -1.292348,-1.11826 -1.701994,-1.202276 -0.578776,-0.118856 1.063753,1.02606 1.899744,2.743971 2.122351,4.362532 0.224523,1.63251 0.04808,3.54738 -0.730705,7.93543 -0.502052,2.82882 -0.566809,3.56518 -0.574642,6.5102 -0.0087,3.27161 0.05028,3.74952 0.717786,5.79034 0.09084,0.27772 0.0297,0.30002 -0.576193,0.20671 -0.372909,-0.0574 -3.882851,-0.16907 -7.799524,-0.24753 -7.691583,-0.1541 -8.966942,-0.2911 -10.490832,-1.1281 -1.339672,-0.73582 -2.149663,-2.16581 -2.18488,-3.85868 l -0.0155,-0.76274 -0.179317,0.58136 c -0.218508,0.70975 -0.07184,2.42568 0.273885,3.20704 0.36706,0.82958 1.4169,1.86137 2.460832,2.41845 1.831256,0.97723 4.23037,1.58704 8.9054,2.26343 4.539363,0.65675 7.985804,1.4423 11.07736,2.52491 1.559406,0.54608 1.777749,0.68265 3.28507,2.05569 1.897479,1.72843 3.080276,2.4866 5.945891,3.8101 3.023303,1.39632 6.13436,2.45037 10.286194,3.48558 l 0.791166,0.1974 -1.624707,0.47232 c -1.732287,0.50327 -4.015768,1.34404 -7.192326,2.64894 -6.746045,2.77121 -11.380026,3.70473 -16.38298,3.30057 -2.684789,-0.21689 -4.650463,-0.60494 -8.823234,-1.74304 -4.197241,-1.14478 -5.631607,-1.48829 -7.560778,-1.80971 -3.182369,-0.53023 -6.482812,-0.15671 -9.18652,1.03973 -1.744979,0.77219 -2.188543,1.17704 -0.644405,0.58807 3.334769,-1.27197 7.157889,-1.12279 11.676807,0.45579 0.580248,0.2027 2.756143,1.05702 4.835364,1.89859 7.219867,2.92229 10.829604,3.71928 15.974735,3.52744 2.856352,-0.1065 5.527621,-0.57726 10.488249,-1.8495 8.041616,-2.06241 9.60648,-2.31634 13.627075,-2.20917 2.280473,0.0608 3.183316,0.15438 4.219897,0.43873 2.251385,0.61759 3.817673,1.44272 5.206918,2.74299 2.030391,1.90035 2.881478,3.87735 2.881478,6.69158 0,2.58793 -0.797883,5.37241 -2.414323,8.42584 -1.580381,2.9853 -3.204614,4.68091 -5.457548,5.69681 l -1.359607,0.61288 -2.373499,-0.003 c -2.833019,-0.004 -3.503468,-0.15671 -10.084139,-2.30787 -7.071418,-2.31158 -9.244559,-2.71217 -11.824601,-2.17868 -2.119966,0.43836 -3.978078,1.41336 -6.705017,3.51762 -1.447673,1.11711 -2.901332,1.98561 -3.868498,2.31149 -0.962845,0.32442 -3.816103,0.28805 -7.025411,-0.0894 -1.529121,-0.17984 -3.055751,-0.34798 -3.392558,-0.37362 -0.553996,-0.0422 -0.656839,-0.13486 -1.081071,-0.97255 -0.731586,-1.44458 -2.036768,-2.31149 -3.478857,-2.31149 -0.384945,0 -1.356725,0.19607 -2.159558,0.43563 -0.802833,0.23957 -2.013319,0.49096 -2.690275,0.55862 l -1.230933,0.12248 1.230933,0.0202 c 0.725492,0.0116 1.771886,-0.11405 2.549198,-0.30644 1.661398,-0.4112 2.736038,-0.41882 3.515031,-0.0243 0.725858,0.3676 1.517384,1.25859 1.680518,1.89187 0.103053,0.40005 0.06669,0.45711 -0.296623,0.45941 -3.120961,0.0198 -6.88027,0.73095 -9.229928,1.74614 -0.615156,0.26578 -1.010822,0.46316 -1.011824,0.4992 v 5.2e-4 l 5.17e-4,5.1e-4 5.16e-4,5.2e-4 v 5.2e-4 l 5.17e-4,5.1e-4 5.17e-4,5.2e-4 c 2.15e-4,1.4e-4 0.0013,9e-4 0.0016,0.001 0.008,0.003 0.02951,9.2e-4 0.0646,-0.007 0.241769,-0.0559 1.191223,-0.29062 2.109949,-0.52142 1.835433,-0.46108 4.71629,-0.59821 7.212479,-0.34313 l 1.3224,0.13539 -0.06925,0.68162 c -0.175819,1.74098 0.819031,3.52495 2.206583,3.95738 0.344661,0.10742 1.664853,0.20699 2.933671,0.22169 2.162553,0.025 2.433417,0.0663 4.328935,0.65939 2.33318,0.73002 4.126257,0.92925 5.379517,0.5979 1.178004,-0.31146 2.437614,-1.50904 4.273124,-4.06332 2.192382,-3.05091 3.236085,-3.73945 5.665287,-3.73414 1.478685,0.003 3.041831,0.36436 4.697388,1.08521 1.265995,0.55123 6.359302,3.21634 6.359302,3.32744 0,0.0281 -1.048194,-0.36085 -2.329574,-0.86403 -1.28138,-0.5032 -2.916656,-1.0675 -3.633887,-1.25419 -4.028954,-1.04867 -6.693204,0.28026 -8.126119,4.05299 l -0.551387,1.45107 -0.72347,-0.12299 c -0.398104,-0.0676 -1.515457,-0.12247 -2.482536,-0.12247 -1.55295,0 -1.847803,0.0484 -2.528011,0.41496 -0.92099,0.4964 -1.652796,1.41358 -2.119251,2.65668 l -0.342614,0.91313 -1.900659,-0.0346 c -1.045406,-0.0188 -3.40409,-0.15668 -5.241541,-0.30695 -4.547087,-0.3719 -7.472672,-0.38138 -8.674923,-0.0274 -1.725959,0.50815 -2.490804,1.17723 -2.490804,2.17971 0,0.46808 0.655955,1.42203 1.666565,2.42311 0.414866,0.41095 0.84296,0.91054 0.950847,1.11001 0.303027,0.56027 0.225926,1.71776 -0.169499,2.54299 -0.172094,0.35916 -0.234041,0.54386 -0.21084,0.57 2.36e-4,2.2e-4 0.0013,0.001 0.0016,0.002 2.68e-4,1.6e-4 0.0013,3.8e-4 0.0016,5.1e-4 0.04351,0.0155 0.250515,-0.27256 0.555521,-0.81855 0.448502,-0.80285 0.485594,-2.04849 0.0832,-2.78329 -0.157408,-0.28745 -0.671372,-0.95983 -1.142566,-1.49449 -1.051431,-1.19307 -1.136128,-1.79586 -0.318326,-2.26549 1.266803,-0.72749 4.328263,-0.56159 12.019421,0.65112 2.314984,0.36501 4.230596,0.68394 4.256588,0.70848 0.09956,0.094 -0.623699,2.89984 -0.975135,3.78272 -0.76064,1.91086 -2.225068,2.89556 -4.668448,3.13934 l -1.236618,0.12351 1.12758,0.0222 c 3.240398,0.0648 5.068021,-1.61066 6.176884,-5.66374 l 0.397392,-1.45365 2.127519,0.004 2.127518,0.004 -0.791683,0.33797 c -2.889921,1.23531 -3.081116,3.86755 -0.404109,5.56142 0.560808,0.35486 1.047533,0.66079 1.081587,0.67954 0.03405,0.0188 -0.313167,0.70559 -0.771529,1.52652 -0.925337,1.65727 -1.854837,2.79407 -3.12539,3.82199 -0.794386,0.64269 -0.912262,0.68413 -1.934249,0.68265 -0.598543,-6.2e-4 -2.148954,-0.18753 -3.445268,-0.41497 -3.782011,-0.66355 -6.726342,-0.52329 -8.596374,0.40928 -0.358374,0.17871 -0.547373,0.32825 -0.42013,0.33228 0.127242,0.004 0.378178,-0.0669 0.557589,-0.15761 0.632932,-0.31987 2.655909,-0.48339 4.082955,-0.3297 0.769704,0.0829 2.718113,0.50289 4.329968,0.93328 3.697936,0.98739 4.946095,1.0518 6.271452,0.32298 1.175624,-0.64648 3.492687,-2.8651 4.671033,-4.47208 l 0.95498,-1.30225 0.564824,0.6165 c 0.89301,0.97553 1.188659,2.0246 1.191658,4.22972 0.0024,1.75593 -0.037,1.98563 -0.487825,2.85254 -0.680082,1.30776 -2.128734,2.51103 -4.44314,3.69021 -3.367965,1.71597 -4.820388,2.79498 -5.543848,4.11913 -0.23902,0.43747 -0.342192,0.67431 -0.318843,0.70745 2.1e-4,2.5e-4 0.0013,0.001 0.0015,0.002 l 5.17e-4,5.2e-4 c 5.24e-4,3.2e-4 0.002,8.2e-4 0.0026,0.001 0.04022,0.0102 0.222077,-0.20734 0.535884,-0.65474 0.840036,-1.19761 2.18174,-2.08471 5.498373,-3.63544 2.392492,-1.11862 3.197342,-1.58335 3.950663,-2.28358 1.812738,-1.68501 2.55784,-4.16003 2.06499,-6.85694 -0.269718,-1.47593 -0.908616,-2.88701 -1.633492,-3.60702 l -0.437699,-0.43408 1.170471,-0.7891 c 1.039538,-0.70049 1.247716,-0.77897 1.861385,-0.70125 0.844574,0.10697 2.963068,1.11344 4.965071,2.35851 l 1.492933,0.92811 -0.514181,0.92346 c -0.830459,1.49082 -0.592926,3.00726 0.762227,4.86844 1.483328,2.03722 1.441671,1.9407 0.956014,2.2412 -0.452608,0.28005 -2.522789,0.74555 -3.336747,0.75034 -0.800481,0.005 -1.677625,0.44407 -2.056205,1.03043 -0.288707,0.44717 -0.354999,0.83858 -0.355534,2.09703 -6.65e-4,1.61177 -0.134854,2.06741 -0.692464,2.34921 -0.182781,0.0924 -1.414292,0.27477 -2.736267,0.40566 -3.443774,0.34097 -3.96654,0.72793 -4.549076,3.36621 -0.378297,1.71329 -0.678635,2.16708 -1.748731,2.63756 -0.83077,0.36526 -0.865155,0.40062 -0.384473,0.40153 0.684386,0.001 1.585885,-0.52373 1.907378,-1.11105 0.13968,-0.25518 0.428053,-1.00555 0.640787,-1.66708 0.490073,-1.52398 0.992815,-2.23061 1.765784,-2.48202 0.335129,-0.109 1.416761,-0.20259 2.403471,-0.20774 l 1.794206,-0.009 0.183968,0.6227 c 0.392841,1.32788 0.586496,2.48309 0.482141,2.87269 -0.0701,0.26173 -0.520604,0.66 -1.264006,1.11725 -1.320246,0.81204 -1.757042,1.38942 -2.035018,2.68924 -0.107909,0.50458 -0.315656,1.0944 -0.46147,1.31051 -0.207576,0.30764 -0.213609,0.37627 -0.02791,0.31781 0.130453,-0.041 0.377306,-0.44189 0.548286,-0.8909 0.890042,-2.33737 0.800265,-2.20794 1.882573,-2.72386 1.387433,-0.66137 2.28949,-1.4865 2.292366,-2.09703 0.0013,-0.26319 -0.132374,-1.02255 -0.297139,-1.68776 l -0.299723,-1.20974 0.805635,-0.70022 c 0.908998,-0.79003 1.193224,-1.49709 1.194759,-2.97191 0.002,-1.69267 0.0434,-1.72904 2.139921,-1.84433 0.999365,-0.055 2.093934,-0.18882 2.43241,-0.29766 1.516543,-0.48763 2.422829,-1.63885 2.199349,-2.79414 -0.0634,-0.3277 -0.475724,-1.17927 -0.916223,-1.89239 -0.913544,-1.4789 -1.152161,-2.53885 -0.673861,-2.99052 0.522826,-0.49371 1.439412,-0.3354 3.600297,0.62064 2.075973,0.91847 3.887376,1.5249 6.077149,2.03553 1.719009,0.40086 6.43115,0.41419 7.884273,0.0222 l 1.026811,-0.27698 -0.108004,0.44493 c -0.163662,0.67287 -1.333885,1.5742 -2.677873,2.06344 -1.779225,0.64767 -2.83599,0.90321 -6.317444,1.52756 -3.651596,0.65487 -4.391944,0.87722 -5.66632,1.70118 -1.754098,1.13413 -2.459403,2.52867 -3.121774,6.1712 -0.572636,3.14907 -0.861202,4.17436 -1.519287,5.40588 -1.015688,1.90073 -2.129269,2.90078 -4.710307,4.22868 -0.778268,0.40041 -1.161336,0.61024 -1.150834,0.64544 1.28e-4,2.5e-4 8.6e-4,0.001 0.001,0.002 l 5.17e-4,5.1e-4 c 0.03261,0.023 0.412445,-0.10702 1.138431,-0.37568 1.674565,-0.61971 3.584047,-1.81689 4.586284,-2.8758 1.287613,-1.36042 1.992801,-2.85555 2.888195,-6.12624 0.429827,-1.57006 0.913545,-3.10185 1.075387,-3.40392 1.042289,-1.9453 2.28435,-2.59035 5.640999,-2.92903 l 1.239718,-0.12505 -0.140043,0.58704 c -0.186524,0.78098 0.06773,1.77251 0.812353,3.1688 0.751137,1.4085 0.762599,1.81315 0.0739,2.55385 -0.503454,0.54148 -2.064657,1.25935 -2.738851,1.25935 -0.454702,0 -1.470238,0.52036 -1.65623,0.84853 -0.165603,0.2922 -0.145984,0.29197 0.40411,-0.0145 0.318186,-0.17728 1.012623,-0.40513 1.543058,-0.50591 1.843934,-0.35034 2.938803,-0.93269 3.426148,-1.82263 0.386318,-0.70545 0.326339,-1.32065 -0.264067,-2.71301 -0.653127,-1.54027 -0.69704,-2.55997 -0.131775,-3.05459 0.435729,-0.38128 1.135506,-0.57921 3.12074,-0.88212 0.725306,-0.11067 1.920001,-0.37086 2.654618,-0.57826 2.510964,-0.70892 3.839558,-1.5456 4.651396,-2.92954 0.464099,-0.79115 0.520541,-1.04534 0.535368,-2.42207 l 0.01654,-1.53841 1.037146,-0.73225 c 0.570303,-0.40287 1.044959,-0.71985 1.055233,-0.70384 0.0103,0.016 -0.08155,0.88869 -0.204122,1.9389 -0.122572,1.05021 -0.317256,2.73114 -0.432532,3.73569 -0.237395,2.06885 -0.679445,3.36961 -1.975073,5.81153 -0.48454,0.91323 -1.030455,2.07173 -1.213363,2.57401 -0.439397,1.20657 -1.348548,2.47729 -2.287199,3.1967 -1.507697,1.15554 -2.46252,1.4729 -8.31112,2.76262 -2.803625,0.61825 -4.272591,1.27846 -5.55625,2.49701 -1.671965,1.58714 -1.98633,2.72504 -1.570964,5.68854 0.167916,1.19804 0.178813,1.78769 0.04082,2.21227 -0.242341,0.74565 -0.102029,0.74774 0.227376,0.003 0.16844,-0.3807 0.254765,-1.17625 0.254765,-2.34714 0,-2.14566 0.203432,-2.84888 1.103292,-3.81424 1.349391,-1.44762 2.7836,-1.98126 6.012553,-2.23656 5.796385,-0.4583 9.19412,-1.43429 11.342976,-3.25871 0.459214,-0.38988 0.885155,-0.66171 0.946713,-0.60358 0.06154,0.0581 0.112138,0.75642 0.112138,1.55132 0,1.11072 0.121506,1.84383 0.526066,3.16828 0.57215,1.87311 0.626352,2.3205 0.342098,2.82205 -0.304722,0.53768 -0.902858,0.64126 -4.621941,0.80357 -2.706997,0.11814 -3.81341,0.23413 -4.686535,0.49041 -2.095757,0.61515 -3.340882,1.63261 -3.340882,2.73007 0,0.37169 0.208076,0.7099 1.637627,2.6634 0.313302,0.42814 0.477803,0.87563 0.487825,1.32808 0.0076,0.34558 0.01255,0.51429 0.03669,0.52917 3.7e-4,1.9e-4 0.0012,4e-4 0.0016,5.2e-4 h 5.16e-4 5.17e-4 c 4.53e-4,-10e-6 0.0013,1e-5 0.0016,0 0.02337,-0.003 0.06323,-0.12408 0.134358,-0.34572 0.202452,-0.6308 0.003,-1.18887 -0.886251,-2.4846 -0.378171,-0.55104 -0.737517,-1.19528 -0.798917,-1.43195 -0.238684,-0.92002 1.404921,-1.96463 3.479891,-2.21124 0.455559,-0.0541 1.164607,-0.13721 1.575614,-0.185 l 0.747241,-0.0868 0.01964,1.20768 c 0.0224,1.3853 0.26682,2.00684 1.293978,3.29334 0.828473,1.03764 0.96368,1.41498 0.834575,2.32389 -0.114199,0.80402 0.150927,0.70307 0.394291,-0.15038 0.219279,-0.76901 0.04422,-1.40565 -0.701249,-2.54971 -0.618749,-0.9496 -0.991811,-2.32501 -0.812871,-2.99827 0.184124,-0.69275 0.702813,-0.84515 2.927987,-0.86351 2.34467,-0.0193 3.1639,-0.28582 3.746025,-1.2175 l 0.35605,-0.56999 0.318844,0.5581 c 0.671051,1.17744 1.048543,2.68132 1.07797,4.29432 0.02685,1.4734 -0.0082,1.64484 -0.52865,2.59467 -0.306457,0.55927 -0.676374,1.05995 -0.821655,1.11259 -0.319217,0.11567 -1.251783,1.40858 -1.11156,1.54099 0.05469,0.0517 0.194745,-0.0807 0.311609,-0.29403 0.11687,-0.21329 0.593138,-0.70688 1.058333,-1.0971 0.487943,-0.40932 1.055223,-1.1118 1.340487,-1.66036 0.452124,-0.86945 0.493785,-1.10763 0.490409,-2.77761 -0.0047,-2.17769 -0.214213,-2.93109 -1.668632,-5.97741 -1.231471,-2.57934 -1.480671,-3.73011 -1.359607,-6.28592 0.104695,-2.21026 0.521792,-3.58291 1.539958,-5.07049 1.729755,-2.52724 2.543406,-4.52692 3.624068,-8.90075 0.546524,-2.212 1.5699,-5.39996 2.18488,-6.80785 l 0.21704,-0.49817 0.22944,0.99633 c 0.45861,1.99458 0.78113,4.2152 1.04438,7.19491 0.371,4.19944 0.74194,5.75317 2.06913,8.662 0.67325,1.4756 0.7242,1.6993 0.79271,3.4618 0.11902,3.06216 -0.58478,5.38271 -2.35334,7.76025 -1.91151,2.56972 -2.76557,4.70289 -2.78588,6.95927 -0.0141,1.56353 0.37805,2.54259 1.46296,3.65404 0.37493,0.38411 0.73748,0.86378 0.80564,1.0666 0.0682,0.20283 0.161,0.33414 0.20619,0.29146 0.0452,-0.0427 -0.0452,-0.36463 -0.20051,-0.71572 -0.15534,-0.35108 -0.42233,-0.78918 -0.59324,-0.97307 -1.02264,-1.10035 -1.24781,-2.99274 -0.59325,-4.98368 0.38842,-1.18141 1.58491,-3.27998 1.82366,-3.19877 0.0721,0.0245 0.31352,0.29914 0.53692,0.61082 0.54186,0.75597 1.45359,1.17274 2.99827,1.37149 2.86691,0.36888 3.24704,0.60371 3.04477,1.87741 -0.10835,0.68229 -0.39275,1.16685 -1.66501,2.83962 -0.69448,0.91313 -0.91564,2.09828 -0.49144,2.63239 0.23125,0.29117 0.24683,0.2426 0.16898,-0.52245 l -0.0858,-0.84387 1.31724,-1.33015 c 1.40063,-1.41429 1.88929,-2.33748 1.88929,-3.57136 v -0.65732 l 0.79736,0.10335 c 1.1001,0.14239 3.34765,1.05226 4.06177,1.64434 0.90607,0.75125 0.82662,1.3521 -0.3514,2.66341 -0.51846,0.57713 -1.03241,1.20813 -1.14256,1.40249 -0.24478,0.4319 -0.25597,1.20061 -0.0222,1.53738 0.12339,0.17775 0.14207,0.0972 0.0651,-0.28164 -0.13548,-0.66723 0.26068,-1.29805 1.59111,-2.53369 1.21179,-1.12545 1.47062,-1.75409 1.05886,-2.57349 -0.76452,-1.52138 -2.87354,-2.5222 -6.81716,-3.23443 -3.60045,-0.65025 -4.17118,-0.7995 -4.6483,-1.21698 -0.56028,-0.49026 -0.49578,-1.02285 0.31471,-2.60552 0.70634,-1.37927 1.04977,-2.40098 1.40354,-4.17339 l 0.18551,-0.92811 1.35651,1.27434 c 0.79937,0.75131 1.85444,1.53651 2.5709,1.91254 1.42277,0.74673 5.10853,1.94227 7.48844,2.42931 3.15968,0.64662 4.79836,1.545 5.81773,3.18844 0.57849,0.93265 0.57228,0.79582 0.22892,4.94905 -0.0577,0.69882 -0.0329,1.39268 0.0553,1.54151 0.11462,0.1934 0.16222,0.044 0.1664,-0.52348 0.003,-0.43671 0.22717,-1.4293 0.49764,-2.20555 0.67611,-1.94042 0.67201,-3.22972 -0.0145,-4.5651 -1.06303,-2.06778 -3.19552,-3.51241 -7.10344,-4.81263 -5.39669,-1.79556 -7.43649,-3.47049 -8.19537,-6.72827 -0.15955,-0.68492 -0.56296,-2.06709 -0.89607,-3.07164 -1.07677,-3.24723 -1.14227,-3.82495 -0.90072,-7.9282 l 0.21343,-3.62717 0.93741,0.8847 0.93689,0.8847 -0.2837,1.18391 c -0.81693,3.41606 1.28642,5.57271 7.24193,7.4259 2.16455,0.67355 2.70079,1.05392 2.73524,1.93838 0.0306,0.7866 -0.15367,1.25362 -0.91106,2.30942 -0.36031,0.50227 -0.71143,1.15563 -0.78031,1.45211 -0.30262,1.30251 0.78035,2.52306 2.90731,3.27732 0.71686,0.25422 1.52051,0.65311 1.78646,0.88625 0.26594,0.23314 0.48369,0.34956 0.48369,0.25838 0,-0.35861 -0.79994,-0.94281 -1.9973,-1.45831 -1.56986,-0.67586 -2.3983,-1.50213 -2.3983,-2.39106 0,-0.47667 0.18273,-0.84958 0.78962,-1.61283 0.88094,-1.10792 1.39533,-2.34468 1.28106,-3.07991 -0.0417,-0.26815 0.005,-0.48679 0.10438,-0.48679 0.31394,0 3.1673,0.85562 3.66903,1.10019 0.78628,0.38326 1.71395,1.23315 2.07429,1.90014 0.47072,0.87132 0.64844,1.73459 0.86868,4.22248 0.25172,2.84347 0.45667,3.8777 1.01338,5.11597 0.97509,2.16889 2.30616,3.55331 4.82864,5.02191 0.87682,0.5105 1.42665,0.76355 1.46555,0.71779 0.0221,-0.0342 -0.19827,-0.21095 -0.72141,-0.54364 -1.44607,-0.91961 -2.82252,-2.20506 -3.5388,-3.30419 -1.24415,-1.90914 -1.63191,-3.58991 -1.63607,-7.09104 -0.005,-3.84378 -0.49297,-5.44591 -2.08928,-6.85591 -1.10289,-0.97419 -2.10994,-1.44523 -5.26531,-2.46187 -4.64689,-1.49721 -7.81544,-3.18967 -8.32094,-4.4452 -0.30675,-0.76189 -0.0835,-0.85185 1.04696,-0.42065 2.22198,0.84751 3.09847,0.98389 6.2761,0.97617 3.26789,-0.008 4.36406,-0.16801 8.03621,-1.17306 1.13172,-0.30975 2.17548,-0.56327 2.31975,-0.56327 0.14426,0 0.47626,0.17391 0.73742,0.38602 0.41123,0.33403 0.4586,0.46615 0.35502,0.98754 -0.0663,0.33346 -0.48909,1.05425 -0.94826,1.61592 -1.66888,2.04142 -1.9742,2.95262 -1.33274,3.97805 0.56049,0.896 2.55512,1.78392 4.68602,2.08567 1.135,0.16072 1.22002,0.30587 1.00666,1.72651 -0.2365,1.5746 -0.0784,2.3839 0.63924,3.27163 0.32434,0.40125 0.58962,0.87531 0.58962,1.05368 0,0.17838 -0.19207,0.89556 -0.42684,1.5937 -0.23478,0.69814 -0.37888,1.39248 -0.31988,1.54255 0.22542,0.57331 0.85285,1.21541 1.6707,1.711 1.01762,0.61663 1.30827,1.09923 1.52239,2.52698 0.089,0.59323 0.24614,1.2138 0.34933,1.37924 0.1558,0.24978 0.17452,0.21626 0.1111,-0.1974 -0.042,-0.27398 -0.12024,-0.97851 -0.17363,-1.5658 -0.11379,-1.25163 -0.25167,-1.47998 -1.66708,-2.75487 -0.58627,-0.52806 -1.06609,-1.08334 -1.06609,-1.23351 0,-0.2695 1.09841,-2.92708 1.28106,-3.09956 0.15225,-0.14377 3.78713,0.41419 4.18114,0.64183 0.64974,0.37538 1.03946,1.20442 1.2392,2.63653 0.24508,1.75719 0.67967,2.52393 1.69241,2.98689 0.42243,0.19311 0.80978,0.31186 0.86093,0.26355 0.0512,-0.0483 -0.19178,-0.21603 -0.54002,-0.37207 -1.06249,-0.47611 -1.33043,-1.00631 -1.49655,-2.96622 -0.23705,-2.79673 -0.79901,-3.40567 -3.70158,-4.00906 -1.66786,-0.34672 -3.30031,-1.02104 -3.4339,-1.41852 -0.0566,-0.16828 -0.019,-0.73313 0.0832,-1.25522 0.239,-1.22092 0.23656,-2.42706 -0.006,-2.9285 -0.25847,-0.53568 -1.02505,-0.93507 -2.46651,-1.2852 -1.32007,-0.32065 -2.86188,-1.08367 -2.69751,-1.3348 0.0571,-0.0872 0.64958,-0.76792 1.31671,-1.51257 0.66714,-0.74464 1.34842,-1.62189 1.51412,-1.94923 0.45224,-0.89334 0.51552,-2.20599 0.15038,-3.10886 -0.36422,-0.90058 -0.51113,-0.76559 1.95234,-1.78852 4.25632,-1.76738 5.54247,-1.8011 6.85074,-0.18138 l 0.47439,0.58704 -0.88315,0.88109 c -1.12918,1.12745 -1.56507,1.94856 -1.98334,3.73465 -0.41088,1.75452 -0.42925,2.8041 -0.0729,4.10311 0.50781,1.85113 1.67345,3.05976 5.04878,5.23586 2.53283,1.63294 3.78972,2.76864 4.49689,4.06331 0.64676,1.18407 0.73223,0.95728 0.1266,-0.33589 -0.52555,-1.12219 -1.80847,-2.43248 -3.78995,-3.8716 -3.41754,-2.48213 -4.72137,-4.06935 -4.88032,-5.93917 -0.17616,-2.07242 0.69982,-4.54059 2.05517,-5.79035 l 0.70694,-0.65112 0.63355,1.31672 c 1.28118,2.6597 3.45679,5.23531 4.90409,5.80636 1.01912,0.4021 2.36107,0.45211 4.31757,0.16123 2.53586,-0.37701 6.00549,-0.50652 7.20886,-0.26923 0.53189,0.10489 1.39783,0.37926 1.92443,0.60978 0.80948,0.35435 0.91152,0.37064 0.65733,0.10542 -0.16535,-0.17254 -0.72878,-0.51117 -1.25161,-0.75293 -1.81911,-0.84112 -2.6839,-0.96523 -7.04453,-1.00872 -4.71683,-0.0471 -4.91385,-0.0944 -6.0048,-1.44281 -0.89623,-1.10775 -1.44607,-2.13408 -2.1425,-3.99924 l -0.53847,-1.4428 0.79633,-0.28681 c 1.79494,-0.64731 2.86532,-1.85378 2.87424,-3.23908 0.006,-0.94482 -0.90922,-2.05539 -2.35437,-2.85615 -0.19825,-0.10985 -0.30716,-0.1881 -0.30489,-0.21239 5e-5,-2.7e-4 4.2e-4,-10e-4 5.1e-4,-0.002 1.2e-4,-2.4e-4 8.9e-4,-0.001 10e-4,-0.002 l 5.1e-4,-5.2e-4 5.2e-4,-5.2e-4 c 2.4e-4,-1.8e-4 0.001,-8.7e-4 0.002,-0.001 0.0104,-0.005 0.0392,-0.002 0.0873,0.0124 0.51263,0.14922 3.2761,0.58911 3.7021,0.58911 0.35468,0 0.39625,0.12538 0.59325,1.79834 0.11648,0.98921 0.3324,2.18152 0.47956,2.64945 0.5208,1.65608 2.0056,2.95413 3.92534,3.43235 0.49846,0.12417 0.86724,0.16633 0.81959,0.0935 -0.0477,-0.0728 -0.35087,-0.17903 -0.67335,-0.23616 -0.85285,-0.15108 -2.13764,-0.97726 -2.73937,-1.76165 -0.60289,-0.78592 -0.99758,-2.24248 -1.17357,-4.33101 l -0.11989,-1.42678 4.901,-0.11472 c 7.7318,-0.18136 11.22458,0.25051 11.80806,1.45986 0.25506,0.52864 -0.003,0.95108 -1.16169,1.89859 -1.32985,1.08792 -1.86687,2.05854 -1.74253,3.14916 0.0882,0.77394 0.60569,2.12727 0.7581,1.98334 0.044,-0.0415 -0.0402,-0.34624 -0.18655,-0.67696 -0.32747,-0.74011 -0.33388,-1.88318 -0.014,-2.43809 0.1316,-0.22831 0.82105,-0.86656 1.53221,-1.41852 2.01478,-1.56372 2.30121,-2.47675 1.13946,-3.63079 -1.12714,-1.11967 -3.38766,-1.61559 -9.11882,-2.00194 -5.72991,-0.38626 -7.94691,-0.61 -8.08839,-0.81494 -0.071,-0.10292 -0.1303,-0.35244 -0.13178,-0.55449 -0.005,-0.76773 -0.76611,-2.29647 -1.48001,-2.97553 -0.89488,-0.85121 -1.61324,-1.06289 -3.99407,-1.17564 l -1.86656,-0.0884 -0.27957,-1.33894 c -0.57738,-2.76749 -1.94784,-4.46288 -4.11964,-5.09633 -0.62462,-0.18218 -1.47954,-0.33125 -1.89963,-0.33125 -0.88526,0 -3.65657,0.49158 -6.05079,1.07332 -0.91549,0.22245 -1.68725,0.3829 -1.71514,0.35657 -0.1006,-0.095 5.69636,-2.13628 6.98407,-2.45928 1.95203,-0.48962 4.45725,-0.58209 5.70714,-0.21084 1.76468,0.52415 2.53091,1.35609 4.16978,4.52634 0.87519,1.69298 1.68057,3.01009 2.10788,3.44785 1.33455,1.36719 3.16104,1.78344 5.77432,1.31568 2.37443,-0.425 3.80069,-0.47347 5.27513,-0.17828 1.64324,0.32899 3.20607,0.33864 3.85093,0.0238 0.27097,-0.13233 0.73477,-0.50104 1.03095,-0.81959 0.50238,-0.54031 0.61078,-0.8442 1.02681,-2.88303 0.0686,-0.33605 0.17774,-0.37326 1.08417,-0.37052 2.49777,0.008 6.19064,0.81707 8.3044,1.82056 0.33849,0.16068 0.81346,0.34547 1.05523,0.41083 0.75613,0.2044 -1.33126,-1.052 -3.04839,-1.83503 -1.57178,-0.71674 -5.24596,-1.72806 -6.2792,-1.72806 -0.27409,0 -0.54394,-0.07 -0.59997,-0.15554 -0.056,-0.0856 0.23986,-0.55252 0.65784,-1.03767 1.29107,-1.49859 2.13134,-1.57206 5.2064,-0.45475 1.00492,0.36513 1.91488,0.63302 2.0221,0.59531 0.10721,-0.0377 -0.0427,-0.1253 -0.33279,-0.19482 -0.29013,-0.0695 -1.26437,-0.46198 -2.16524,-0.8723 -1.90325,-0.86686 -3.0071,-0.97059 -4.20337,-0.39429 -0.75771,0.36503 -1.7377,1.32371 -1.98747,1.94407 -0.15042,0.37362 -0.21477,0.38633 -1.61489,0.31678 -0.80192,-0.0399 -2.60524,-0.11009 -4.00751,-0.15607 -5.20206,-0.17057 -5.53241,-0.3119 -9.64695,-4.11964 -3.64094,-3.36945 -4.62514,-3.9476 -7.50704,-4.41058 -1.53331,-0.24632 -1.83473,-0.24518 -3.98942,0.0129 -1.28181,0.15349 -4.11051,0.61971 -6.28644,1.03612 -10.07996,1.92901 -12.42001,1.64505 -15.04197,-1.8247 -2.19647,-2.90668 -3.29423,-7.16334 -3.31866,-12.8664 -0.0218,-5.0925 0.6597,-7.28466 2.99361,-9.62783 3.09618,-3.10845 5.98941,-3.55408 8.12974,-1.25212 0.28836,0.31014 0.89646,1.22273 1.35082,2.02778 2.90441,5.14622 5.6446,7.30406 10.83551,8.53281 2.87268,0.68 8.97207,0.60089 13.39402,-0.17415 0.98428,-0.17252 3.2747,-0.651 5.08961,-1.06298 6.5925,-1.49648 10.90741,-1.65282 13.02711,-0.47181 0.72247,0.40253 0.83824,0.33247 0.24547,-0.14882 -0.71318,-0.57906 -1.95665,-1.09366 -3.20911,-1.32809 -1.99162,-0.3728 -6.12278,-0.27894 -10.19834,0.23203 -1.93415,0.2425 -4.86203,0.48953 -6.50607,0.5488 -8.05049,0.29022 -13.72875,-1.44124 -16.08119,-4.90306 -0.55657,-0.81904 -1.67138,-3.1434 -1.55856,-3.24993 0.032,-0.0302 0.76975,0.0827 1.6397,0.25063 2.96514,0.57271 5.03912,0.72283 6.91379,0.50075 4.59865,-0.54477 8.02537,-2.30887 14.35002,-7.38818 3.82861,-3.07474 5.6548,-4.25925 7.60367,-4.932 1.84263,-0.63608 6.69063,-0.34019 10.15081,0.6196 0.42294,0.11731 0.73659,0.17568 0.75499,0.14469 0.002,-0.004 -7.6e-4,-0.009 -0.007,-0.015 -0.31694,-0.29929 -3.0048,-1.25902 -5.08031,-1.81385 -5.33873,-1.42717 -8.15859,-0.69787 -15.31534,3.95842 -5.66279,3.68429 -8.86873,4.97023 -12.4256,4.98574 -2.18248,0.01 -2.49019,-0.0612 -8.49871,-1.95182 -5.80757,-1.82739 -6.55153,-1.97501 -10.13943,-2.01228 l -2.90111,-0.03 0.0522,-1.13895 c 0.13064,-2.84167 1.57944,-3.99633 7.06417,-5.63066 4.33425,-1.29151 7.60589,-2.40581 8.70851,-2.96675 0.58025,-0.29519 1.6499,-0.84543 2.3766,-1.22266 2.17008,-1.12652 3.96325,-1.40265 11.53728,-1.77509 2.69524,-0.13254 5.60184,-0.35772 6.45904,-0.50022 3.16047,-0.52541 5.41008,-1.69467 6.54223,-3.40031 0.86337,-1.30074 0.74328,-1.50557 -0.26923,-0.45941 -1.05346,1.08846 -2.49759,1.75415 -4.35322,2.0066 -1.51094,0.20555 -5.38669,-0.0324 -8.84184,-0.54312 -1.20885,-0.17866 -2.64727,-0.38589 -3.19722,-0.45992 l -1.00046,-0.13436 1.32395,-1.49448 c 3.57146,-4.03097 5.96916,-8.67958 6.83111,-13.24622 0.63323,-3.35487 -0.0743,-9.277531 -1.51774,-12.708791 -0.46225,-1.09885 -0.91043,-1.971012 -0.97668,-1.939417 -6e-4,3.86e-4 -0.002,0.0015 -0.003,0.0021 -0.0106,0.01368 -0.005,0.06655 0.0207,0.163815 0.67481,2.57561 0.83448,3.961226 0.85111,7.388696 l 0.0176,3.569807 -0.62839,1.99265 c -0.9449,2.99859 -1.99925,5.00886 -3.89795,7.43262 l -0.87953,1.12344 -0.29663,-1.38389 c -0.16317,-0.76108 -0.97198,-3.28402 -1.7973,-5.60638 -1.42002,-3.99575 -2.05879,-6.46916 -2.05879,-7.97264 0,-0.34106 0.15716,-1.093856 0.34933,-1.672766 0.42201,-1.27129 0.41851,-1.226628 0.0765,-0.958598 -0.42408,0.33234 -1.10554,1.70275 -1.42007,2.85564 -0.36676,1.34431 -0.24377,4.153764 0.37672,8.590174 0.48712,3.48279 0.59348,6.55798 0.27234,7.87911 -0.30207,1.2427 -0.98296,2.4001 -1.99574,3.391 -1.66704,1.631 -6.1363,3.40351 -11.3404,4.49844 -5.30758,1.11669 -8.12209,1.6129 -8.12818,1.43247 -0.003,-0.0999 -0.11554,-0.76038 -0.24908,-1.46761 -0.37581,-1.99045 -1.23645,-4.25251 -2.85978,-7.51427 -2.6141,-5.2525 -3.11035,-6.9149 -3.01015,-10.08363 0.0525,-1.65994 0.11614,-1.98127 0.56327,-2.84117 0.96423,-1.85435 3.05148,-3.554975 6.1774,-5.032765 3.14727,-1.48789 5.99957,-3.117547 7.17269,-4.098457 2.46379,-2.06012 3.99445,-3.845955 4.87361,-5.684925 0.21519,-0.45013 0.4344,-0.893116 0.48679,-0.984436 0.0482,-0.08409 0.0694,-0.130944 0.0672,-0.142627 v -5.16e-4 -5.17e-4 h -5.2e-4 v -5.17e-4 l -5.2e-4,-5.17e-4 h -5.1e-4 c -0.0357,-0.005 -0.41805,0.490927 -0.99994,1.306897 -0.94999,1.33219 -2.92776,3.314612 -4.2137,4.224032 -1.22786,0.86835 -3.48056,2.141102 -4.26537,2.409672 -0.36194,0.12386 -1.44879,0.5758 -2.41587,1.00459 -0.96708,0.42879 -2.12071,0.915904 -2.56367,1.082104 -1.02544,0.38476 -3.19329,1.649566 -4.16202,2.428276 l -0.74724,0.60048 -0.008,-2.553333 c -0.0172,-5.76041 -0.50708,-8.78345 -2.19056,-13.51287 -1.04363,-2.93187 -2.60089,-6.67419 -2.89182,-6.94893 v -5.17e-4 c -0.0258,-0.02434 -0.0471,-0.04352 -0.061,-0.04289 z M 55.054521,168.66774 c 5.63e-4,-6e-5 10e-4,0 0.0016,0 v 5.2e-4 c 0.134273,0.001 -0.581731,1.18677 -1.631425,2.69492 -1.189269,1.70867 -2.284203,2.22694 -4.094324,1.93839 -0.439832,-0.0701 -1.581513,-0.32876 -2.537313,-0.57465 -1.962342,-0.50483 -2.612414,-0.55128 -5.103047,-0.36535 -1.615224,0.12058 -1.80604,0.10283 -2.341976,-0.21549 -0.754356,-0.44806 -1.300141,-1.58763 -1.228349,-2.56522 l 0.05374,-0.72812 2.637048,0.64544 c 7.044317,1.72497 8.786653,1.7287 12.396659,0.0264 0.918726,-0.43324 1.743659,-0.81679 1.83348,-0.85267 0.0053,-0.002 0.01001,-0.004 0.01395,-0.004 z m 9.304858,4.14032 c 0.823935,0.0224 1.928525,0.41396 3.5295,1.15083 4.528941,2.08448 5.851039,2.63781 7.483781,3.13108 2.042844,0.61715 4.280125,0.9394 5.545915,0.79891 l 0.954464,-0.10593 -0.458887,0.82785 c -1.175701,2.12327 -0.517023,4.95741 1.931665,8.31422 l 0.973067,1.33377 -0.445967,0.1602 c -0.565564,0.20305 -1.95907,0.18914 -2.532662,-0.0253 -0.557444,-0.20842 -1.676363,-1.21654 -2.193148,-1.97611 -0.218589,-0.32129 -0.812336,-1.49681 -1.319299,-2.61224 -1.783525,-3.92415 -3.419116,-4.79987 -7.213514,-3.86075 -1.82197,0.45094 -3.416028,0.43608 -4.413167,-0.0413 -0.429122,-0.20547 -1.668418,-1.0462 -2.753837,-1.8681 -2.239652,-1.69592 -2.202676,-1.60188 -1.333252,-3.43132 0.590844,-1.24326 1.185995,-1.82461 2.245341,-1.79575 z m 86.434521,2.53421 c 0,-0.0341 0.49473,0.31903 1.09915,0.78445 0.60443,0.46541 1.81112,1.18121 2.68149,1.5906 2.35647,1.1084 3.574,1.21101 8.85631,0.74621 2.25981,-0.19886 4.13828,-0.33386 4.17442,-0.29973 0.0361,0.0341 -0.0533,0.50479 -0.19895,1.04593 -0.3717,1.38083 -1.15443,2.06968 -2.32337,2.04587 -0.46078,-0.009 -1.47064,-0.16659 -2.24431,-0.34985 -1.30191,-0.30837 -1.63967,-0.32061 -4.53926,-0.16536 -2.08015,0.11136 -3.35072,0.11194 -3.78065,0.003 -1.22353,-0.31185 -2.07752,-1.37725 -3.1259,-3.89898 -0.32916,-0.79177 -0.59893,-1.46711 -0.59893,-1.5012 z m -96.41479,0.32246 c 1.426552,-0.0373 3.575492,0.17438 3.575492,0.44132 0,0.25362 -1.053036,1.17419 -1.698604,1.48518 -1.301486,0.627 -4.983159,1.13451 -4.983159,0.68678 0,-0.65174 1.275368,-2.2164 2.02675,-2.48616 0.208665,-0.0749 0.604004,-0.11469 1.079521,-0.12712 z m 40.581502,1.90428 c 0.21873,-0.005 0.02885,0.48583 -0.590145,1.6154 -1.00716,1.83792 -2.238328,3.24581 -5.056022,5.78259 l -1.257288,1.13172 -0.366902,-0.56121 c -1.246218,-1.90414 -1.588754,-3.64816 -0.882634,-4.49585 0.486913,-0.58455 1.274226,-0.94541 3.500045,-1.60403 2.074484,-0.61385 3.527496,-1.18597 4.256071,-1.67587 0.18523,-0.12455 0.317761,-0.19101 0.396875,-0.19275 z m -34.161222,0.19172 1.171504,1.05678 c 3.514477,3.17078 5.010353,3.66854 9.136394,3.04167 1.715155,-0.26058 1.955923,-0.26367 2.537829,-0.0341 0.728589,0.28747 1.22589,1.08129 1.891358,3.0179 0.219659,0.63926 0.622127,1.59157 0.894519,2.11667 0.272391,0.52511 0.440193,0.94971 0.372587,0.94309 -0.06761,-0.007 -0.795453,-0.22051 -1.617473,-0.47542 -2.033574,-0.63064 -3.637804,-1.30861 -8.181412,-3.45715 -5.170244,-2.44486 -7.942717,-3.3368 -10.493417,-3.37551 l -0.930692,-0.0139 0.905888,-0.20774 c 1.408226,-0.32257 2.766509,-1.02747 3.574975,-1.8557 z m 79.83234,0.43925 c 0.12036,-0.004 0.23306,-0.002 0.33951,0.005 0.51097,0.0341 0.87164,0.19209 1.17564,0.46664 0.53718,0.48516 1.02153,1.77267 1.12189,2.98173 l 0.0522,0.62994 -2.28152,1.24075 c -3.42378,1.8619 -4.07479,1.94694 -6.99233,0.91209 -2.3767,-0.84301 -3.32816,-0.96607 -4.53823,-0.58653 -1.39,0.43598 -2.12771,1.20377 -4.22351,4.39715 -0.89425,1.36258 -1.90357,2.32823 -2.8882,2.76314 -0.83482,0.36874 -1.18384,0.43681 -1.58285,0.30902 -0.0967,-0.031 -0.45269,-0.10054 -0.79117,-0.15503 -1.21345,-0.19532 -1.2043,-0.28696 0.16795,-1.75751 1.5237,-1.63285 2.50655,-3.03095 2.99155,-4.25504 0.43317,-1.09329 0.47853,-2.95078 0.0935,-3.82096 -0.33593,-0.75922 -0.3413,-0.74121 0.17156,-0.55707 0.23933,0.0859 1.08082,0.23261 1.87017,0.32608 2.66728,0.31582 5.77206,-0.2275 11.40964,-1.99729 1.85733,-0.58307 3.06159,-0.87622 3.90416,-0.90227 z m -30.68082,0.3855 0.94775,0.6842 c 0.52151,0.37622 2.01673,1.20422 3.32228,1.83968 1.30556,0.63546 2.49633,1.2498 2.64583,1.36529 1.48926,1.1504 1.08848,2.91312 -1.2485,5.49527 -0.0687,0.0759 -0.8367,-0.75534 -1.70688,-1.84691 -2.24676,-2.81843 -3.55637,-5.1509 -3.84317,-6.84455 z m -54.81009,2.04535 c 0.07967,0 0.1597,0.011 0.220142,0.0341 0.120885,0.0461 0.02163,0.0837 -0.220142,0.0837 -0.24177,0 -0.340509,-0.0376 -0.219625,-0.0837 0.06044,-0.023 0.139951,-0.0341 0.219625,-0.0341 z m 93.09509,1.63866 c 1.63421,0 2.93561,0.25542 3.5233,0.69195 0.50471,0.3749 1.01365,1.23429 1.28675,2.17196 0.2114,0.72585 0.26033,0.71622 -1.43661,0.28939 -1.70338,-0.42845 -3.308,-1.21827 -4.04936,-1.99316 -0.96489,-1.00855 -0.87639,-1.16014 0.67592,-1.16014 z m -92.86668,0.85267 c 0.204291,-0.001 0.447067,0.006 0.745174,0.0186 0.777278,0.0338 1.51274,0.1194 1.634009,0.19017 0.155128,0.0905 -0.130293,0.48171 -0.962215,1.31878 -0.650344,0.65437 -1.233075,1.20999 -1.295011,1.23507 -0.06194,0.0251 -0.472108,-0.21399 -0.91209,-0.53124 -1.208381,-0.87129 -1.333331,-1.40898 -0.449068,-1.93476 0.361628,-0.21502 0.626331,-0.29286 1.239201,-0.29662 z m 88.51708,0.64543 h 5.1e-4 c 0.001,-2e-5 0.002,-2e-5 0.003,0 0.074,0.002 0.36701,0.3304 0.65112,0.73019 0.63919,0.89944 1.42469,1.50043 2.83703,2.17145 l 1.09038,0.51831 -2.0004,-0.0724 c -2.73372,-0.0988 -4.24605,0.19873 -10.03453,1.97404 -4.08876,1.254 -8.5114,2.31252 -9.66194,2.31252 -0.25278,0 -0.2552,-0.0397 -0.0238,-0.37362 0.46427,-0.66999 1.29874,-2.01091 1.95595,-3.14399 0.85197,-1.46886 1.55744,-2.12804 2.27997,-2.12804 0.30762,0 1.27133,0.2336 2.14095,0.51935 2.01998,0.66375 3.96945,0.80615 5.4653,0.39894 1.12566,-0.30644 2.13614,-0.83979 3.98115,-2.10116 0.64113,-0.43831 1.22645,-0.79647 1.31517,-0.80564 z m 1.78232,5.77381 1.55184,0.0584 c 1.27903,0.0482 1.65182,0.12611 2.12287,0.44338 0.67943,0.45762 0.74234,0.98661 0.1757,1.47588 -0.4152,0.35851 -1.40894,0.87902 -1.67897,0.87902 -0.087,0 -0.61117,-0.64275 -1.16479,-1.42834 z m 14.25443,6.52984 c -0.0611,-0.002 -0.13085,0.008 -0.19431,0.032 -0.14027,0.053 -0.0989,0.0923 0.10594,0.10025 0.18535,0.007 0.28942,-0.0316 0.23099,-0.0868 -0.0292,-0.0276 -0.0815,-0.0431 -0.14262,-0.0455 z" /><path
       style="fill:#b4b4b4;fill-opacity:1;stroke-width:0.645796"
       d="m 154.01226,156.0565 c -0.47294,-0.0107 -0.98902,0.0284 -1.78306,0.11221 -1.02002,0.10763 -1.93151,0.26861 -2.02585,0.3577 -0.45845,0.43291 0.94269,3.13753 2.20134,4.24929 0.93782,0.82837 2.64129,1.66119 3.85939,1.88709 0.90857,0.1685 4.40802,0.18896 5.16784,0.0302 0.46148,-0.0965 0.52412,-0.1775 0.50105,-0.64828 -0.0145,-0.29597 -0.30801,-1.09801 -0.65216,-1.78235 -1.10873,-2.20465 -2.96184,-3.50155 -5.74341,-4.01904 -0.62231,-0.11577 -1.0522,-0.17611 -1.52514,-0.18679 z"
       id="path390" /><path
       style="fill:#b4b4b4;fill-opacity:1;stroke-width:0.645796"
       d="m 171.34689,154.66298 c -0.99971,0.0515 -1.94359,0.23244 -2.41873,0.52181 -0.19312,0.11761 -0.20045,0.25975 -0.0385,0.72318 0.40549,1.16021 1.84465,2.35848 3.35593,2.79416 0.76089,0.21936 2.87332,0.16574 3.9559,-0.10053 0.57234,-0.14078 1.06914,-0.28284 1.1041,-0.31587 0.035,-0.033 -0.10819,-0.38491 -0.31835,-0.78188 -0.5889,-1.11237 -1.85676,-2.24813 -2.88613,-2.58532 -0.69881,-0.22891 -1.75455,-0.30702 -2.75425,-0.25555 z"
       id="path389" /><path
       style="fill:#b4b4b4;fill-opacity:1;stroke-width:0.645796"
       d="m 130.04338,150.59595 c -0.0891,-0.003 -0.16909,0.0562 -0.28573,0.15566 -0.18004,0.15354 -0.60422,0.71099 -0.9427,1.23883 -0.58929,0.91897 -0.61541,1.02686 -0.61541,2.54347 0,1.4493 0.0479,1.67557 0.56561,2.66315 0.31115,0.59359 0.89497,1.43846 1.29711,1.87737 l 0.73115,0.79809 0.40112,-0.35607 c 0.22061,-0.19571 0.66543,-0.8161 0.98872,-1.37893 0.52812,-0.91942 0.58794,-1.15904 0.58794,-2.36025 0,-1.20978 -0.0621,-1.45456 -0.65285,-2.57363 -0.35906,-0.68019 -0.96351,-1.57311 -1.34313,-1.98406 -0.40993,-0.44377 -0.58342,-0.61916 -0.73183,-0.62363 z"
       id="path388" /><path
       style="fill:#b4b4b4;fill-opacity:1;stroke-width:0.645796"
       d="m 43.90768,146.89148 c -1.784351,-0.002 -3.547116,0.71294 -4.881418,2.03595 -0.695242,0.68935 -1.995976,2.45061 -1.995976,2.70271 0,0.10413 0.454968,0.34825 1.011038,0.54255 1.388385,0.48514 3.21524,0.49217 4.565125,0.0175 1.231008,-0.43287 3.205301,-2.21738 3.987831,-3.60458 0.575851,-1.02082 0.567616,-1.03389 -0.910072,-1.44897 -0.584503,-0.16419 -1.181745,-0.24444 -1.776528,-0.24517 z"
       id="path387" /><path
       style="fill:#b4b4b4;fill-opacity:1;stroke-width:0.645796"
       d="m 76.116313,145.02935 -1.320119,0.0801 c -2.526515,0.15312 -4.58581,1.46701 -5.725552,3.65323 -0.610847,1.17172 -1.087035,2.85155 -1.091056,3.84814 l -0.0027,0.64438 1.242162,-0.11577 c 0.683119,-0.0636 1.573265,-0.22498 1.978117,-0.35868 2.557597,-0.84467 4.402459,-3.42022 4.792472,-6.69029 z"
       id="path386" /><path
       style="fill:#b4b4b4;fill-opacity:1;stroke-width:0.645796"
       d="m 175.96868,142.75342 c -0.22398,-0.008 -0.53569,0.0103 -0.95369,0.0321 -2.40635,0.12524 -3.82606,1.04535 -4.88931,3.1684 -0.61973,1.23745 -0.82511,2.26228 -0.49282,2.46111 0.36205,0.21662 1.57975,0.17588 2.49188,-0.0833 1.78436,-0.50711 3.18957,-1.97231 3.98371,-4.1533 0.41359,-1.13584 0.53215,-1.40037 -0.13977,-1.42497 z"
       id="path385" /><path
       style="fill:#b4b4b4;fill-opacity:1;stroke-width:0.645796"
       d="m 29.46948,142.54035 -1.651179,0.0814 c -1.353668,0.0669 -1.854959,0.17156 -2.780353,0.58049 -1.563074,0.69072 -2.778923,1.88486 -3.650933,3.5861 -0.868993,1.69537 -1.405051,3.73048 -1.040229,3.94867 0.333561,0.19949 1.466765,0.18653 2.716478,-0.0311 2.982135,-0.51943 5.043074,-2.55573 6.045966,-5.97326 0.198084,-0.67501 0.36025,-1.44429 0.36025,-1.70971 z"
       id="path384" /><path
       style="fill:#b4b4b4;fill-opacity:1;stroke-width:0.645796"
       d="m 162.57483,141.71761 -1.80229,0.0694 c -2.00635,0.0772 -2.75805,0.33957 -3.99572,1.39546 -1.2229,1.04329 -2.34007,3.10851 -2.70309,4.99713 -0.0981,0.51049 -0.0777,0.53235 0.55119,0.59217 0.86299,0.0821 1.85931,-0.0199 2.95001,-0.30193 2.02397,-0.52341 3.67624,-2.30332 4.66987,-5.03053 0.18149,-0.49813 0.33003,-1.08937 0.33003,-1.31373 z"
       id="path383" /><path
       style="fill:#b4b4b4;fill-opacity:1;stroke-width:0.645796"
       d="m 167.10217,134.3317 c -0.77437,-0.0441 -1.63205,0.0907 -2.68109,0.39856 -1.13189,0.33222 -1.25014,0.44424 -1.00555,0.95117 0.47912,0.99301 1.8029,2.0613 3.02659,2.44262 0.66008,0.2057 2.95293,0.0437 4.00122,-0.28279 0.50772,-0.15809 0.92313,-0.38012 0.92313,-0.49326 0,-0.47728 -1.21978,-1.84792 -2.08287,-2.34047 -0.71576,-0.40846 -1.40704,-0.63171 -2.18143,-0.67583 z"
       id="path382" /><path
       style="fill:#b4b4b4;fill-opacity:1;stroke-width:0.645796"
       d="m 51.965418,134.04435 c -0.345503,0.009 -0.693468,0.0345 -1.041602,0.0775 -0.820588,0.10133 -1.523234,0.21353 -1.561202,0.24938 -0.144586,0.13654 0.554939,1.8554 1.060491,2.60574 1.617393,2.40052 4.833401,3.38824 8.588328,2.63753 0.531067,-0.10617 0.608768,-0.18329 0.579355,-0.57433 -0.05475,-0.7279 -0.845388,-2.18349 -1.613059,-2.96994 -1.301588,-1.33342 -3.593784,-2.08843 -6.012311,-2.02589 z"
       id="path381" /><path
       style="fill:#b4b4b4;fill-opacity:1;stroke-width:0.645796"
       d="m 26.254353,128.93339 0.08757,1.15483 c 0.261252,3.44802 3.283793,5.79102 7.536078,5.84193 l 1.155276,0.0136 -0.132561,-1.03906 c -0.174725,-1.37052 -0.675674,-2.43254 -1.588333,-3.36752 -1.208452,-1.23801 -3.036619,-2.06762 -5.083693,-2.30674 -0.526438,-0.0615 -1.186023,-0.1537 -1.465731,-0.20464 z"
       id="path380" /><path
       style="fill:#b4b4b4;fill-opacity:1;stroke-width:0.645796"
       d="m 142.38807,127.82104 c -1.25663,-0.0565 -2.68235,0.15244 -3.53692,0.56137 -2.20449,1.05489 -4.16959,3.53372 -4.85978,6.13055 -0.0988,0.37181 -0.0391,0.42503 0.65422,0.58082 0.41964,0.0943 1.43813,0.14741 2.26316,0.11837 1.21985,-0.0429 1.69099,-0.14108 2.52278,-0.52569 1.92361,-0.88945 3.49237,-2.57844 4.53285,-4.8807 0.68349,-1.51237 0.66526,-1.59504 -0.40352,-1.83716 -0.3539,-0.0802 -0.75392,-0.12873 -1.17279,-0.14756 z"
       id="path379" /><path
       style="fill:#b4b4b4;fill-opacity:1;stroke-width:0.645796"
       d="m 46.295158,126.18431 c -2.105193,0.10257 -3.777248,0.795 -5.660989,2.34468 l -0.702644,0.57823 0.584507,0.57466 c 0.622218,0.61185 2.131116,1.40738 3.068143,1.6176 1.00962,0.2265 2.17567,0.16867 3.318155,-0.16475 1.63308,-0.4766 4.546237,-2.34644 4.546237,-2.91804 0,-0.33186 -1.835245,-1.51344 -2.840454,-1.82872 -0.627675,-0.19688 -1.277592,-0.2541 -2.312955,-0.20366 z"
       id="path378" /><path
       style="fill:#b4b4b4;fill-opacity:1;stroke-width:0.645796"
       d="m 152.7282,125.08007 c -1.43601,0.008 -3.165,0.33711 -3.165,0.60319 0,0.34776 0.92512,1.89671 1.42728,2.38977 0.56181,0.55162 1.82026,1.20789 2.6945,1.40551 0.84147,0.19021 2.3266,0.17409 3.55065,-0.0389 0.71469,-0.12436 1.11921,-0.27518 1.11921,-0.41705 0,-0.50292 -0.8317,-1.84503 -1.58696,-2.56067 -1.03442,-0.98016 -2.23711,-1.39144 -4.03968,-1.38184 z"
       id="path377" /><path
       style="fill:#b4b4b4;fill-opacity:1;stroke-width:0.645796"
       d="m 169.37736,121.33928 c -0.61007,0.022 -1.33041,0.10266 -1.77138,0.22798 -1.95086,0.55443 -3.47737,2.53259 -3.90541,5.06036 l -0.11574,0.68201 h 1.04607 c 0.57538,0 1.41224,-0.11754 1.8593,-0.26139 1.66325,-0.53516 3.12465,-2.29067 3.72786,-4.4776 0.14808,-0.53685 0.26924,-1.03502 0.26924,-1.10715 0,-0.10942 -0.49988,-0.14621 -1.10994,-0.12421 z"
       id="path376" /><path
       style="fill:#b4b4b4;fill-opacity:1;stroke-width:0.645796"
       d="m 27.859856,119.36592 c -0.492329,0.0118 -0.987924,0.0838 -1.47775,0.21793 -1.189892,0.32581 -3.025443,1.24617 -3.522835,1.76646 -0.333297,0.34863 -0.330902,0.3542 0.455722,1.01408 1.867715,1.56678 3.696705,1.89893 6.127701,1.11234 1.032855,-0.33419 2.426277,-1.12233 2.946571,-1.66657 0.330479,-0.34569 0.327104,-0.35348 -0.415886,-0.97679 -1.187445,-0.99618 -2.636535,-1.50275 -4.113523,-1.46745 z"
       id="path375" /><path
       style="fill:#b4b4b4;fill-opacity:1;stroke-width:0.645796"
       d="m 78.549123,118.37778 c -2.066762,-0.0899 -4.6837,0.51565 -6.317957,1.46194 l -0.581072,0.3363 0.388068,0.53671 c 0.769679,1.06376 2.200411,2.31664 3.188685,2.79255 1.794842,0.86431 3.781851,0.95486 6.113277,0.27857 0.628598,-0.18234 1.67987,-0.58667 2.336307,-0.89864 l 1.19374,-0.5672 -0.314232,-0.5192 c -0.598142,-0.9878 -2.047379,-2.22199 -3.281409,-2.79449 -1.023097,-0.47464 -1.441269,-0.57066 -2.725407,-0.62654 z"
       id="path374" /><path
       style="fill:#b4b4b4;fill-opacity:1;stroke-width:0.645796"
       d="m 105.51987,114.7132 c -0.24095,-0.007 -0.28369,0.12131 -0.3867,0.58147 -0.0789,0.35266 -0.13492,1.22224 -0.12432,1.93217 0.0419,2.80443 2.00901,5.05553 5.53736,6.33713 1.55826,0.566 1.85937,0.55005 2.01212,-0.1067 0.068,-0.29236 0.11691,-1.06585 0.10886,-1.7191 -0.0336,-2.72603 -1.70349,-4.83316 -4.99818,-6.30665 -0.69997,-0.31305 -1.52462,-0.61615 -1.83251,-0.67357 -0.13391,-0.025 -0.23632,-0.0425 -0.31663,-0.0447 z"
       id="path373" /><path
       style="fill:#b4b4b4;fill-opacity:1;stroke-width:0.645796"
       d="m 162.0961,111.86553 c -0.2089,-0.004 -0.49873,0.0182 -0.88878,0.0434 -0.87377,0.0566 -1.66345,0.21988 -2.18727,0.4524 -1.04566,0.46415 -2.33243,1.76083 -2.85212,2.87394 -0.34836,0.74613 -0.80224,2.3143 -0.80224,2.77211 0,0.43288 2.1272,0.30997 3.3786,-0.19523 1.53782,-0.62082 2.99426,-2.48451 3.56816,-4.56516 0.30863,-1.11889 0.41034,-1.369 -0.21635,-1.38151 z"
       id="path372" /><path
       style="fill:#b4b4b4;fill-opacity:1;stroke-width:0.645796"
       d="m 38.876529,109.69305 -0.251729,0.54774 c -0.151712,0.32997 -0.253518,1.10888 -0.256194,1.95909 -0.0056,1.77439 0.389124,2.66494 1.729823,3.90099 0.91148,0.84034 3.317592,2.16608 3.61556,1.99217 0.07608,-0.0444 0.235648,-0.46324 0.354413,-0.93073 0.318971,-1.25558 0.137067,-2.76164 -0.458127,-3.79431 -0.642949,-1.11552 -2.221929,-2.48825 -3.624489,-3.15089 z"
       id="path371" /><path
       style="fill:#b4b4b4;fill-opacity:1;stroke-width:0.645796"
       d="m 135.54948,108.60697 c -0.30451,0.009 -1.21502,1.03006 -1.66801,1.91369 -0.58707,1.14519 -0.52864,2.65178 0.15695,4.03525 0.49364,0.99616 1.51094,2.29312 1.7985,2.29312 0.0704,0 0.45292,-0.41395 0.84997,-0.92003 1.64837,-2.101 1.33537,-4.24759 -1.06358,-7.2909 -0.0173,-0.022 -0.0423,-0.032 -0.0738,-0.0311 z"
       id="path370" /><path
       style="fill:#b4b4b4;fill-opacity:1;stroke-width:0.645796"
       d="m 65.703378,108.36634 -0.500712,0.24452 c -0.275415,0.13449 -0.908645,0.591 -1.407348,1.01441 -1.7445,1.48111 -2.472826,3.72487 -1.979491,6.09909 0.211804,1.01932 0.925723,2.83378 1.273756,3.23748 0.25924,0.3007 1.071216,-0.14764 2.203747,-1.21709 1.280503,-1.20921 1.676353,-2.09915 1.768973,-3.97494 0.08177,-1.65613 -0.196252,-3.00373 -0.933081,-4.5243 z"
       id="path369" /><path
       style="fill:#b4b4b4;fill-opacity:1;stroke-width:0.645796"
       d="m 128.78439,103.72562 c -0.50909,0.009 -2.53734,0.7688 -3.41913,1.3079 -2.40722,1.47167 -3.58362,3.78168 -3.58362,7.03664 0,1.68106 0.31096,3.45054 0.60615,3.45054 0.11999,0 0.66168,-0.1442 1.20403,-0.3204 4.11892,-1.33821 6.2023,-5.00768 5.58132,-9.83049 -0.10926,-0.84854 -0.23621,-1.5783 -0.28229,-1.62182 -0.0172,-0.0162 -0.0538,-0.0233 -0.10646,-0.0224 z"
       id="path368" /><path
       style="fill:#b4b4b4;fill-opacity:1;stroke-width:0.645796"
       d="m 163.81081,101.9063 c -1.02355,-1.9e-4 -2.05853,0.20478 -2.81916,0.59217 -1.28258,0.65322 -2.75595,2.11155 -3.56405,3.52805 l -0.66315,1.16294 0.83898,0.25295 c 1.34489,0.40548 1.48194,0.42413 2.73125,0.37003 0.90162,-0.039 1.45874,-0.17736 2.30918,-0.57272 1.31197,-0.60991 3.08252,-2.28448 3.86522,-3.65615 0.58042,-1.01716 0.57343,-1.02818 -0.92999,-1.45026 -0.5441,-0.15276 -1.15415,-0.2269 -1.76828,-0.22701 z"
       id="path367" /><path
       style="fill:#b4b4b4;fill-opacity:1;stroke-width:0.645796"
       d="m 107.28437,100.5997 c -0.0711,0.001 -0.15855,0.014 -0.26821,0.0347 -1.5956,0.30135 -3.13317,1.45764 -3.81887,2.87199 -0.47289,0.97541 -0.69831,2.72917 -0.5062,3.93894 0.14632,0.92142 0.41224,0.97751 1.78271,0.37489 2.07412,-0.91203 3.07645,-2.45974 3.20757,-4.95237 0.0418,-0.79483 0.0231,-1.644 -0.0416,-1.8871 -0.0764,-0.2873 -0.14224,-0.38505 -0.35544,-0.38105 z"
       id="path366" /><path
       style="fill:#b4b4b4;fill-opacity:1;stroke-width:0.645796"
       d="m 44.545417,96.853717 c -0.291886,-0.0124 -0.349319,0.22125 -0.474955,0.68848 -0.117316,0.4363 -0.211727,1.34792 -0.209831,2.02558 0.003,1.075703 0.0835,1.385023 0.634646,2.438083 0.663667,1.26806 1.633213,2.22363 3.057153,3.01274 0.952271,0.52772 2.69727,1.20506 2.860029,1.11007 0.06698,-0.0391 0.218591,-0.45331 0.337242,-0.92036 0.75914,-2.98823 -0.905337,-5.901503 -4.323012,-7.565903 -1.063081,-0.51771 -1.589386,-0.7763 -1.881272,-0.78869 z"
       id="path365" /><path
       style="fill:#b4b4b4;fill-opacity:1;stroke-width:0.645796"
       d="m 127.44298,96.253117 c -1.44889,-0.027 -3.0562,0.43826 -4.35393,1.3053 l -0.8249,0.55131 0.59378,0.58049 c 1.68505,1.646633 3.81338,2.058903 6.22626,1.2064 0.48996,-0.17311 1.27036,-0.542 1.73429,-0.81983 0.80217,-0.48039 0.83132,-0.52324 0.58966,-0.87237 -0.38598,-0.55762 -1.84112,-1.54589 -2.58632,-1.75672 -0.43044,-0.12178 -0.89589,-0.18558 -1.37884,-0.19458 z"
       id="path364" /><path
       style="fill:#b4b4b4;fill-opacity:1;stroke-width:0.645796"
       d="m 135.67174,95.742017 -0.19678,0.46667 c -0.10826,0.25659 -0.23598,0.99251 -0.28401,1.63544 -0.11314,1.51446 0.31957,2.517433 1.5897,3.683713 0.79238,0.7276 2.60147,1.86561 2.97302,1.87024 0.0688,8.7e-4 0.22178,-0.31594 0.33998,-0.70406 0.3511,-1.15283 0.2715,-2.60578 -0.19231,-3.510543 -0.54162,-1.05653 -1.80571,-2.22139 -3.13958,-2.89275 z"
       id="path363" /><path
       style="fill:#b4b4b4;fill-opacity:1;stroke-width:0.645796"
       d="m 63.671686,95.263677 c -0.6246,0 -0.389773,2.79427 0.357503,4.2548 0.822053,1.606693 2.852073,2.979033 5.354312,3.619513 0.53189,0.13614 1.204448,0.23197 1.494577,0.21306 l 0.527498,-0.0344 -0.01648,-1.33287 c -0.01342,-1.07824 -0.110189,-1.5297 -0.505518,-2.361553 -0.535679,-1.12718 -1.752256,-2.33979 -3.082568,-3.07241 -0.714234,-0.39334 -3.580674,-1.28617 -4.12932,-1.28617 z"
       id="path362" /><path
       style="fill:#b4b4b4;fill-opacity:1;stroke-width:0.645796"
       d="m 150.18411,95.017857 c -0.15283,0.006 -0.36027,0.0833 -0.65147,0.20496 -1.13808,0.47539 -1.98193,1.25027 -2.42834,2.2302 -0.33538,0.73619 -0.38297,1.08522 -0.32351,2.36739 0.0383,0.827103 0.1291,1.594503 0.20159,1.705163 0.15175,0.23165 0.7265,0.0675 1.64843,-0.47056 1.56769,-0.91492 2.33562,-2.677673 2.0784,-4.770443 -0.11695,-0.95149 -0.18886,-1.2804 -0.5251,-1.26671 z"
       id="path361" /><path
       style="fill:#b4b4b4;fill-opacity:1;stroke-width:0.645796"
       d="m 81.916387,94.511627 c -0.02513,-8.1e-4 -0.04408,0.002 -0.05598,0.009 -0.178236,0.10402 -0.477516,1.3173 -0.615758,2.49581 -0.129763,1.10619 0.183314,2.58723 0.780944,3.693443 0.823083,1.52354 3.028437,3.25341 5.24476,4.11406 0.558373,0.21683 1.068262,0.39607 1.133296,0.39824 0.06499,0.002 0.223285,-0.2763 0.351666,-0.61876 0.138495,-0.36943 0.232206,-1.33169 0.230093,-2.36609 -0.0033,-1.5375 -0.05931,-1.85607 -0.474268,-2.698503 -0.558553,-1.13391 -1.943237,-2.56967 -3.351123,-3.47454 -1.072551,-0.68933 -2.866723,-1.54056 -3.243633,-1.55274 z"
       id="path360" /><path
       style="fill:#b4b4b4;fill-opacity:1;stroke-width:0.645796"
       d="m 162.42716,90.169907 c -0.19336,-10e-4 -0.6868,0.11855 -1.18688,0.2922 -1.37555,0.47763 -2.70759,1.7349 -3.16808,2.99036 -0.34548,0.94192 -0.45563,3.29293 -0.19574,4.17957 0.11624,0.39661 0.19983,0.44507 0.61438,0.35608 0.26378,-0.0566 0.82954,-0.25755 1.25727,-0.44624 0.99041,-0.43692 2.067,-1.45121 2.48295,-2.33917 0.67744,-1.44618 0.85127,-4.8103 0.25963,-5.02469 -0.0145,-0.005 -0.0359,-0.008 -0.0635,-0.008 z"
       id="path359" /><path
       style="fill:#b4b4b4;fill-opacity:1;stroke-width:0.645796"
       d="m 107.53336,88.788067 c -0.29579,0 -0.60927,1.16232 -0.60443,2.24156 0.006,1.35615 0.39733,2.20685 1.48977,3.23845 0.64299,0.60719 2.13008,1.46841 2.56537,1.48594 0.10558,0.004 0.28361,-0.28095 0.39562,-0.63401 0.49938,-1.57395 0.12397,-3.1572 -1.04812,-4.42117 -0.53829,-0.58048 -2.48634,-1.91077 -2.79821,-1.91077 z"
       id="path358" /><path
       style="fill:#b4b4b4;fill-opacity:1;stroke-width:0.645796"
       d="m 60.405731,87.585247 c -0.177348,-0.004 -0.728809,0.18424 -1.330078,0.45888 -1.401437,0.64014 -2.373391,1.54071 -2.932491,2.71633 -0.713978,1.50128 -0.5572,5.66551 0.213266,5.66551 0.171113,0 0.793313,-0.22767 1.382965,-0.50591 1.959989,-0.92488 3.006942,-2.53811 3.156403,-4.86449 0.08318,-1.29463 -0.157113,-3.19158 -0.437865,-3.4567 -0.0091,-0.009 -0.02687,-0.0131 -0.0522,-0.0136 z"
       id="path357" /><path
       style="fill:#b4b4b4;fill-opacity:1;stroke-width:0.645796"
       d="m 138.56817,87.384507 c -0.71673,0.0256 -1.41961,0.18539 -2.05642,0.48385 -0.89687,0.42035 -2.76335,1.97586 -3.14644,2.62228 -0.24675,0.41636 1.94567,1.3742 3.28622,1.43568 0.20004,0.009 0.79347,-0.10374 1.31874,-0.25069 1.36378,-0.38153 2.25576,-0.92199 3.41534,-2.07 1.00104,-0.99104 1.00955,-1.00811 0.64014,-1.25244 -1.03022,-0.68141 -2.26304,-1.01131 -3.45758,-0.96868 z"
       id="path356" /><path
       style="fill:#b4b4b4;fill-opacity:1;stroke-width:0.645796"
       d="m 96.125867,83.863907 c -0.476753,-0.0112 -1.828037,0.53595 -2.430406,1.02284 -0.400886,0.32404 -0.943398,1.00293 -1.205416,1.50864 -0.397941,0.76807 -0.476925,1.14339 -0.480792,2.27885 -0.004,1.21756 0.1331,2.10633 0.325564,2.10633 0.03821,0 0.491284,-0.14873 1.006574,-0.33079 1.123513,-0.39695 2.076972,-1.27306 2.62238,-2.40889 0.324261,-0.6753 0.399953,-1.12946 0.404552,-2.43484 0.0033,-0.88266 -0.04039,-1.64851 -0.0965,-1.7016 -0.02768,-0.0262 -0.07785,-0.0389 -0.145955,-0.0405 z"
       id="path355" /><path
       style="fill:#b4b4b4;fill-opacity:1;stroke-width:0.645796"
       d="m 65.860322,82.644547 c -0.384278,0 -0.392813,0.0364 -0.301183,1.29882 0.206341,2.84279 2.135881,4.70807 5.605698,5.41904 1.728054,0.35408 1.613972,0.43737 1.524455,-1.11397 -0.122545,-2.1237 -1.055936,-3.48466 -3.075354,-4.48441 -1.177356,-0.58287 -2.976228,-1.11948 -3.753616,-1.11948 z"
       id="path354" /><path
       style="fill:#b4b4b4;fill-opacity:1;stroke-width:0.645796"
       d="m 124.10696,82.600747 -0.67894,0.11642 c -2.45225,0.42031 -4.3584,2.11832 -4.92366,4.38615 -0.23952,0.96092 -0.32144,3.11627 -0.13566,3.57345 0.14111,0.34724 0.9195,0.20713 2.30472,-0.4151 2.25159,-1.0114 3.22952,-2.69285 3.35593,-5.77091 z"
       id="path353" /><path
       style="fill:#b4b4b4;fill-opacity:1;stroke-width:0.645796"
       d="m 130.07532,79.359377 c -0.006,2.5e-4 -0.0123,8.7e-4 -0.0182,0.002 -0.14286,0.026 -0.49379,0.36178 -0.77992,0.74622 -0.9811,1.3182 -0.81408,3.06465 0.45092,4.71369 l 0.54295,0.70762 0.47907,-0.50656 c 0.26362,-0.2786 0.6229,-0.86181 0.79846,-1.2959 0.27633,-0.68328 0.29175,-0.91307 0.11436,-1.71165 -0.23882,-1.0752 -1.19817,-2.67114 -1.58764,-2.65536 z"
       id="path352" /><path
       style="fill:#b4b4b4;fill-opacity:1;stroke-width:0.645796"
       d="m 85.174101,76.968317 -0.642202,0.10572 c -0.353183,0.0581 -1.132546,0.32956 -1.731883,0.60287 -2.029022,0.92532 -3.1611,2.6681 -3.34666,5.15279 -0.111933,1.49884 0.05972,2.80357 0.368837,2.80357 0.120359,0 0.71718,-0.15891 1.3263,-0.35316 1.510934,-0.48184 2.96105,-1.80741 3.519058,-3.21673 0.446348,-1.12729 0.662904,-2.69422 0.569739,-4.12476 z"
       id="path351" /><path
       style="fill:#b4b4b4;fill-opacity:1;stroke-width:0.645796"
       d="m 106.15657,75.449297 c -0.13817,-0.007 -0.36273,0.0834 -0.82284,0.28474 -1.04013,0.45506 -1.83827,1.16676 -2.28995,2.04211 -0.4005,0.77617 -0.54233,2.85379 -0.26203,3.83678 0.23063,0.80879 0.49211,0.8733 1.41662,0.34992 0.90245,-0.51088 1.5654,-1.14083 1.99117,-1.89196 0.31542,-0.55645 0.37693,-0.94691 0.37948,-2.4076 0.002,-0.95888 -0.0777,-1.87158 -0.17652,-2.02849 -0.0732,-0.11615 -0.12846,-0.1802 -0.23593,-0.1855 z"
       id="path350" /><path
       style="fill:#b4b4b4;fill-opacity:1;stroke-width:0.645796"
       d="m 119.67165,74.825677 -0.65937,0.11156 c -2.56621,0.43428 -3.90084,1.92015 -4.05205,4.511 l -0.08,1.36984 0.59343,-0.10475 c 0.32643,-0.0576 0.97263,-0.25477 1.4362,-0.43845 0.4782,-0.18949 1.10786,-0.62616 1.45509,-1.00922 0.71576,-0.78964 1.30672,-2.42692 1.30672,-3.61983 z"
       id="path349" /><path
       style="fill:#b4b4b4;fill-opacity:1;stroke-width:0.645796"
       d="m 89.780093,72.472597 0.0041,1.22553 c 0.0073,2.32046 1.31196,3.82232 4.04003,4.65012 1.248464,0.37884 1.205446,0.38286 1.338664,-0.11837 h -3.43e-4 c 0.179385,-0.67492 -0.04234,-2.11971 -0.437865,-2.85188 -0.6429,-1.19001 -2.781065,-2.57382 -4.348082,-2.81395 z"
       id="path1" /></g></svg>
